<?xml version="1.0" encoding="UTF-8"?>
<svg xmlns="http://www.w3.org/2000/svg" xmlns:xlink="http://www.w3.org/1999/xlink" width="16pt" height="16pt" viewBox="0 0 16 16" version="1.1">
<defs>
<clipPath id="clip1">
  <path d="M 3 3 L 16 3 L 16 16 L 3 16 Z M 3 3 "/>
</clipPath>
<clipPath id="clip2">
  <path d="M 2.210938 2.070312 L 17.238281 2.070312 L 17.238281 17.140625 L 2.210938 17.140625 Z M 4.710938 7.050781 C 1.4375 8.410156 3.472656 15.890625 3.472656 15.890625 C 3.472656 15.890625 3.085938 12.464844 8.242188 10.457031 C 12.859375 8.664062 9.78125 0.960938 9.78125 0.960938 C 9.78125 0.960938 10.292969 4.738281 4.710938 7.050781 Z M 4.710938 7.050781 "/>
</clipPath>
<clipPath id="clip3">
  <path d="M 2 0 L 11 0 L 11 16 L 2 16 Z M 2 0 "/>
</clipPath>
<clipPath id="clip4">
  <path d="M 1.019531 -0.746094 L 11.453125 -0.746094 L 11.453125 16.679688 L 1.019531 16.679688 Z M 1.101562 8.554688 C -0.707031 10.875 2.921875 15.429688 2.921875 15.429688 C 2.921875 15.429688 1.765625 13.0625 4.84375 9.652344 C 7.59375 6.605469 3.550781 1.679688 3.550781 1.679688 C 3.550781 1.679688 4.261719 4.515625 1.101562 8.554688 Z M 1.101562 8.554688 "/>
</clipPath>
</defs>
<g id="surface1">
<g clip-path="url(#clip1)" clip-rule="nonzero">
<g clip-path="url(#clip2)" clip-rule="nonzero">
<path style=" stroke:none;fill-rule:nonzero;fill:rgb(100%,100%,100%);fill-opacity:1;" d="M 9.125 7.375 C 15.738281 6.128906 15.992188 3.320312 15.992188 3.320312 C 15.992188 3.320312 15.472656 12.03125 10.636719 12.492188 C 4.511719 13.074219 3.476562 15.890625 3.476562 15.890625 C 3.476562 15.890625 3.351562 14.984375 3.738281 13.808594 C 4.511719 11.445312 6.53125 7.859375 9.125 7.375 Z M 9.125 7.375 "/>
</g>
</g>
<g clip-path="url(#clip3)" clip-rule="nonzero">
<g clip-path="url(#clip4)" clip-rule="nonzero">
<path style=" stroke:none;fill-rule:nonzero;fill:rgb(100%,100%,100%);fill-opacity:1;" d="M 4.132812 6.589844 C 9.710938 4.277344 9.199219 0.503906 9.199219 0.503906 C 9.199219 0.503906 12.28125 8.203125 7.664062 10 C 2.503906 12.003906 2.894531 15.429688 2.894531 15.429688 C 2.894531 15.429688 0.855469 7.949219 4.132812 6.589844 Z M 4.132812 6.589844 "/>
</g>
</g>
<path style=" stroke:none;fill-rule:nonzero;fill:rgb(100%,100%,100%);fill-opacity:1;" d="M 0.5625 8.058594 C 3.71875 4.019531 3.007812 1.183594 3.007812 1.183594 C 3.007812 1.183594 7.054688 6.109375 4.300781 9.15625 C 1.226562 12.5625 2.378906 14.933594 2.378906 14.933594 C 2.378906 14.933594 -1.25 10.378906 0.5625 8.058594 Z M 0.5625 8.058594 "/>
</g>
</svg>
