<?xml version="1.0" encoding="UTF-8"?>
<svg xmlns="http://www.w3.org/2000/svg" xmlns:xlink="http://www.w3.org/1999/xlink" width="16pt" height="16pt" viewBox="0 0 16 16" version="1.1">
<g id="surface1">
<path style=" stroke:none;fill-rule:nonzero;fill:rgb(100%,100%,100%);fill-opacity:1;" d="M 10.957031 0.988281 C 8.566406 0.988281 6.621094 2.894531 6.621094 5.238281 C 6.621094 5.257812 6.621094 5.277344 6.621094 5.292969 L 3.835938 9.253906 C 3.792969 9.25 3.75 9.25 3.707031 9.25 C 3.082031 9.25 2.472656 9.429688 1.949219 9.769531 L 1.648438 9.648438 L 0.0117188 8.988281 L 0.0117188 10.695312 C 0.0117188 13.035156 1.417969 15.679688 3.933594 15.445312 C 4.304688 15.417969 4.671875 15.328125 5.011719 15.179688 C 5.015625 15.175781 5.019531 15.175781 5.023438 15.171875 C 6.152344 14.667969 6.878906 13.566406 6.878906 12.351562 C 6.878906 12.324219 6.878906 12.296875 6.875 12.273438 L 10.859375 9.488281 C 10.890625 9.488281 10.925781 9.488281 10.957031 9.488281 C 13.347656 9.488281 15.292969 7.582031 15.292969 5.238281 C 15.292969 2.898438 13.347656 0.992188 10.957031 0.992188 Z M 10.957031 2.40625 C 12.550781 2.40625 13.847656 3.679688 13.847656 5.238281 C 13.847656 6.800781 12.550781 8.070312 10.957031 8.070312 C 9.363281 8.070312 8.066406 6.800781 8.066406 5.238281 C 8.066406 3.679688 9.363281 2.40625 10.957031 2.40625 Z M 10.960938 3.105469 C 9.765625 3.105469 8.792969 4.058594 8.792969 5.234375 C 8.792969 6.410156 9.765625 7.363281 10.960938 7.363281 C 12.160156 7.363281 13.132812 6.410156 13.132812 5.234375 C 13.132812 4.058594 12.160156 3.105469 10.960938 3.105469 Z M 3.707031 9.972656 C 3.945312 9.972656 4.183594 10.007812 4.414062 10.078125 C 4.488281 10.097656 4.5625 10.125 4.636719 10.15625 C 4.863281 10.246094 5.070312 10.371094 5.253906 10.519531 C 5.558594 10.765625 5.800781 11.082031 5.953125 11.453125 C 6.011719 11.59375 6.058594 11.738281 6.089844 11.882812 C 6.089844 11.894531 6.09375 11.902344 6.09375 11.914062 C 6.105469 11.964844 6.113281 12.019531 6.117188 12.074219 C 6.121094 12.101562 6.125 12.128906 6.128906 12.15625 C 6.136719 12.222656 6.136719 12.285156 6.140625 12.351562 C 6.136719 13.667969 5.050781 14.730469 3.707031 14.730469 C 2.816406 14.730469 1.996094 14.253906 1.574219 13.488281 L 2.863281 14.007812 C 3.703125 14.347656 4.644531 14.03125 5.109375 13.304688 C 5.113281 13.300781 5.113281 13.300781 5.113281 13.300781 C 5.117188 13.292969 5.121094 13.28125 5.128906 13.273438 C 5.175781 13.199219 5.222656 13.121094 5.257812 13.039062 C 5.257812 13.035156 5.261719 13.027344 5.261719 13.023438 C 5.308594 12.914062 5.34375 12.800781 5.367188 12.691406 C 5.367188 12.691406 5.367188 12.6875 5.367188 12.6875 C 5.390625 12.574219 5.402344 12.457031 5.398438 12.339844 C 5.398438 11.992188 5.292969 11.65625 5.097656 11.367188 C 5.097656 11.367188 5.09375 11.363281 5.09375 11.359375 C 5.03125 11.269531 4.957031 11.183594 4.878906 11.105469 C 4.816406 11.042969 4.742188 10.988281 4.667969 10.933594 C 4.648438 10.917969 4.632812 10.902344 4.613281 10.886719 C 4.507812 10.816406 4.394531 10.753906 4.269531 10.707031 L 2.84375 10.128906 C 3.121094 10.027344 3.410156 9.972656 3.707031 9.972656 Z M 3.707031 9.972656 "/>
</g>
</svg>
